<svg width="19" height="19" viewBox="0 0 19 19" fill="none" xmlns="http://www.w3.org/2000/svg">
<g clip-path="url(#clip0_1216_2017)">
<path d="M9.50326 4.62158C6.80922 4.62158 4.62817 6.805 4.62817 9.49667C4.62817 12.1907 6.81159 14.3718 9.50326 14.3718C12.1973 14.3718 14.3783 12.1883 14.3783 9.49667C14.3783 6.80262 12.1949 4.62158 9.50326 4.62158ZM9.50326 12.661C7.75447 12.661 6.33897 11.2447 6.33897 9.49667C6.33897 7.74867 7.75526 6.33237 9.50326 6.33237C11.2513 6.33237 12.6675 7.74867 12.6675 9.49667C12.6683 11.2447 11.252 12.661 9.50326 12.661Z" fill="white"/>
<path d="M13.4169 0.0606577C11.6689 -0.020884 7.33923 -0.0169257 5.58965 0.0606577C4.05223 0.132699 2.69611 0.503991 1.60282 1.59728C-0.22435 3.42445 0.00919164 5.88653 0.00919164 9.49732C0.00919164 13.1928 -0.196642 15.5979 1.60282 17.3974C3.43711 19.2309 5.93482 18.991 9.50286 18.991C13.1635 18.991 14.427 18.9934 15.7214 18.4922C17.4813 17.809 18.8097 16.236 18.9395 13.4105C19.0219 11.6617 19.0171 7.33291 18.9395 5.58332C18.7828 2.24803 16.9928 0.225324 13.4169 0.0606577ZM16.1837 16.1885C14.9859 17.3863 13.3242 17.2794 9.4799 17.2794C5.52157 17.2794 3.93428 17.338 2.77607 16.1766C1.44211 14.849 1.68357 12.717 1.68357 9.48466C1.68357 5.1107 1.23469 1.96066 5.62448 1.73582C6.63307 1.7002 6.92994 1.68832 9.46882 1.68832L9.50444 1.71207C13.7232 1.71207 17.0332 1.27032 17.2319 5.65932C17.277 6.66078 17.2873 6.96162 17.2873 9.49653C17.2865 13.4089 17.3609 15.0057 16.1837 16.1885Z" fill="white"/>
<path d="M14.5713 5.56845C15.2005 5.56845 15.7105 5.05841 15.7105 4.42925C15.7105 3.80008 15.2005 3.29004 14.5713 3.29004C13.9422 3.29004 13.4321 3.80008 13.4321 4.42925C13.4321 5.05841 13.9422 5.56845 14.5713 5.56845Z" fill="white"/>
</g>
<defs>
<clipPath id="clip0_1216_2017">
<rect width="19" height="19" fill="white"/>
</clipPath>
</defs>
</svg>
