<svg width="20" height="20" viewBox="0 0 20 20" fill="none" xmlns="http://www.w3.org/2000/svg">
<g clip-path="url(#clip0_321_1357)">
<path fill-rule="evenodd" clip-rule="evenodd" d="M13.0522 3.14457C11.5749 2.48633 9.92437 2.32326 8.34682 2.67968C6.76927 3.03611 5.34919 3.89294 4.29839 5.12238C3.24758 6.35182 2.62235 7.888 2.51593 9.50181C2.40952 11.1156 2.82763 12.7206 3.7079 14.0774C4.58817 15.4341 5.88344 16.47 7.40053 17.0305C8.91762 17.591 10.5752 17.6461 12.1262 17.1875C13.6771 16.7289 15.0383 15.7813 16.0067 14.4859C16.9751 13.1906 17.4988 11.6169 17.4997 9.99957V9.23338C17.4997 8.77315 17.8728 8.40005 18.333 8.40005C18.7932 8.40005 19.1663 8.77315 19.1663 9.23338V10.0001C19.1652 11.9768 18.5251 13.9006 17.3416 15.4839C16.158 17.0671 14.4944 18.2253 12.5988 18.7858C10.7032 19.3462 8.67716 19.2789 6.82294 18.5939C4.96872 17.9089 3.38561 16.6428 2.30972 14.9845C1.23384 13.3262 0.722816 11.3646 0.852878 9.39215C0.98294 7.41971 1.74711 5.54216 3.03143 4.03951C4.31575 2.53686 6.05139 1.48963 7.97951 1.05399C9.90763 0.618361 11.9249 0.817669 13.7305 1.62219C14.1509 1.80951 14.3399 2.30216 14.1525 2.72255C13.9652 3.14294 13.4726 3.33189 13.0522 3.14457Z" fill="#332614"/>
<path fill-rule="evenodd" clip-rule="evenodd" d="M18.9226 2.74378C19.2482 3.06906 19.2485 3.59669 18.9232 3.92229L10.5899 12.264C10.4336 12.4204 10.2216 12.5083 10.0005 12.5083C9.77945 12.5084 9.5674 12.4206 9.41107 12.2643L6.91107 9.76426C6.58563 9.43882 6.58563 8.91118 6.91107 8.58574C7.23651 8.26031 7.76414 8.26031 8.08958 8.58574L10 10.4962L17.7441 2.74437C18.0694 2.41877 18.597 2.41851 18.9226 2.74378Z" fill="#332614"/>
</g>
<defs>
<clipPath id="clip0_321_1357">
<rect width="20" height="20" fill="white"/>
</clipPath>
</defs>
</svg>
