<svg width="40" height="40" viewBox="0 0 40 40" fill="#DBC3A3" xmlns="http://www.w3.org/2000/svg">
<path fill-rule="evenodd" clip-rule="evenodd" d="M20 9.99997C15.4534 9.99997 11.0931 11.8061 7.87819 15.021L7.87818 15.021C4.66326 18.2359 2.85714 22.5962 2.85714 27.1428C2.85714 27.5218 3.0077 27.8851 3.27546 28.1529L2.26541 29.1631L3.27546 28.1529C3.54352 28.4209 3.90697 28.5714 4.28571 28.5714H35.7143C36.0931 28.5714 36.4566 28.4208 36.7244 28.153C36.9923 27.8851 37.1429 27.5216 37.1429 27.1428C37.1429 22.5962 35.3368 18.2359 32.1219 15.021C28.9069 11.8061 24.5466 9.99997 20 9.99997ZM5.85788 13.0007C9.60859 9.24996 14.6957 7.14282 20 7.14282C25.3043 7.14282 30.3914 9.24996 34.1421 13.0007C37.8929 16.7514 40 21.8385 40 27.1428C40 28.2796 39.5483 29.3697 38.7447 30.1733C37.9411 30.9768 36.8509 31.4285 35.7143 31.4285H4.28571C3.14892 31.4285 2.05894 30.9768 1.25536 30.1734L2.25949 29.169L1.25535 30.1734C0.451487 29.3696 0 28.2794 0 27.1428C0 21.8385 2.10714 16.7514 5.85787 13.0007C5.85788 13.0007 5.85788 13.0007 5.85788 13.0007Z"/>
<path fill-rule="evenodd" clip-rule="evenodd" d="M20.0001 2.85718C20.7891 2.85718 21.4287 3.49677 21.4287 4.28575V8.57146C21.4287 9.36044 20.7891 10 20.0001 10C19.2111 10 18.5715 9.36044 18.5715 8.57146V4.28575C18.5715 3.49677 19.2111 2.85718 20.0001 2.85718Z"/>
<path fill-rule="evenodd" clip-rule="evenodd" d="M0 35.7142C0 34.9252 0.639593 34.2856 1.42857 34.2856H38.5714C39.3604 34.2856 40 34.9252 40 35.7142C40 36.5032 39.3604 37.1428 38.5714 37.1428H1.42857C0.639593 37.1428 0 36.5032 0 35.7142Z"/>
</svg>
