<svg width="40" height="40" viewBox="0 0 40 40" fill="#DBC3A3" xmlns="http://www.w3.org/2000/svg">
<path d="M37.5 13.7506V3.75061C37.5 3.41909 37.3683 3.10115 37.1339 2.86673C36.8995 2.63231 36.5815 2.50061 36.25 2.50061H23.75C23.4185 2.50061 23.1005 2.63231 22.8661 2.86673C22.6317 3.10115 22.5 3.41909 22.5 3.75061V13.7506C22.5029 15.5213 23.1318 17.234 24.2756 18.5858C25.4193 19.9376 27.0042 20.8414 28.75 21.1375V35H23.75V37.5H36.25V35H31.25V21.1375C32.9958 20.8414 34.5807 19.9376 35.7244 18.5858C36.8682 17.234 37.4971 15.5213 37.5 13.7506ZM25 13.7506V4.99999H35V13.7506C35 15.0767 34.4732 16.3485 33.5355 17.2861C32.5979 18.2238 31.3261 18.7506 30 18.7506C28.6739 18.7506 27.4021 18.2238 26.4645 17.2861C25.5268 16.3485 25 15.0767 25 13.7506Z" />
<path d="M15 2.5V13.775C14.9985 15.0874 14.4766 16.3456 13.5486 17.2736C12.6206 18.2016 11.3624 18.7235 10.05 18.725C8.72441 18.7366 7.44833 18.222 6.50163 17.294C5.55493 16.3661 5.01491 15.1006 5 13.775V2.5H2.5V13.775C2.51219 15.5372 3.14568 17.2386 4.28894 18.5797C5.43219 19.9208 7.01192 20.8156 8.75 21.1065V37.5H11.25V21.1191C12.9928 20.8335 14.5777 19.9385 15.7222 18.5936C16.8668 17.2486 17.4968 15.5411 17.5 13.775V2.5H15Z" />
<path d="M11.25 2.5H8.75V14.975H11.25V2.5Z" />
</svg>
