<svg width="40" height="40" viewBox="0 0 40 40" fill="none" xmlns="http://www.w3.org/2000/svg">
<path d="M15.2334 16.8167C15.2334 15.5525 15.7356 14.3401 16.6295 13.4462C17.5234 12.5522 18.7359 12.05 20.0001 12.05C21.2643 12.05 22.4767 12.5522 23.3706 13.4462C24.2645 14.3401 24.7667 15.5525 24.7667 16.8167" stroke="white" stroke-width="1.91" stroke-miterlimit="10"/>
<path d="M20 8.86667C21.7581 8.86667 23.1833 7.44144 23.1833 5.68333C23.1833 3.92523 21.7581 2.5 20 2.5C18.2419 2.5 16.8167 3.92523 16.8167 5.68333C16.8167 7.44144 18.2419 8.86667 20 8.86667Z" stroke="white" stroke-width="1.91" stroke-miterlimit="10"/>
<path d="M34.3166 26.3667C36.0747 26.3667 37.5 24.9414 37.5 23.1833C37.5 21.4252 36.0747 20 34.3166 20C32.5585 20 31.1333 21.4252 31.1333 23.1833C31.1333 24.9414 32.5585 26.3667 34.3166 26.3667Z" stroke="white" stroke-width="1.91" stroke-miterlimit="10"/>
<path d="M34.3166 37.5C36.0747 37.5 37.5 36.0747 37.5 34.3166C37.5 32.5585 36.0747 31.1333 34.3166 31.1333C32.5585 31.1333 31.1333 32.5585 31.1333 34.3166C31.1333 36.0747 32.5585 37.5 34.3166 37.5Z" stroke="white" stroke-width="1.91" stroke-miterlimit="10"/>
<path d="M5.68333 26.3667C7.44144 26.3667 8.86667 24.9414 8.86667 23.1833C8.86667 21.4252 7.44144 20 5.68333 20C3.92523 20 2.5 21.4252 2.5 23.1833C2.5 24.9414 3.92523 26.3667 5.68333 26.3667Z" stroke="white" stroke-width="1.91" stroke-miterlimit="10"/>
<path d="M5.68333 37.5C7.44144 37.5 8.86667 36.0747 8.86667 34.3166C8.86667 32.5585 7.44144 31.1333 5.68333 31.1333C3.92523 31.1333 2.5 32.5585 2.5 34.3166C2.5 36.0747 3.92523 37.5 5.68333 37.5Z" stroke="white" stroke-width="1.91" stroke-miterlimit="10"/>
<path d="M26.3666 20H13.6333V37.5H26.3666V20Z" stroke="white" stroke-width="1.91" stroke-miterlimit="10"/>
</svg>
